<svg width="180" height="187" viewBox="0 0 180 187" fill="none" xmlns="http://www.w3.org/2000/svg">
<path fill-rule="evenodd" clip-rule="evenodd" d="M168.685 0.312234C171.97 0.295805 174.109 1.18808 176.035 3.37669C179.496 7.3115 179.232 -0.292244 179.236 95.7761C179.239 168.295 179.138 182.183 178.605 183.462C177.574 185.929 175.734 186.506 168.897 186.504C163.9 186.502 162.824 186.372 161.585 185.616C158.809 183.923 158.945 185.858 158.797 146.002L158.66 109.378L156.745 109.348C155.687 109.332 124.812 109.281 88.1306 109.234L21.4323 109.149L21.4236 127.861C21.4062 161.717 20.9673 182.458 20.24 183.869C19.1058 186.064 17.5477 186.506 10.9431 186.506C4.20124 186.506 2.79116 186.077 1.5261 183.645C0.814518 182.276 0.758001 175.805 0.750705 95.2292C0.742952 8.49712 0.745418 8.28377 1.67942 6.23509C2.70605 3.98452 4.79846 1.78827 6.73508 0.928445C8.5127 0.139401 12.5094 0.182324 14.4929 1.01145C16.6301 1.90504 18.5305 3.6967 19.6491 5.87278C20.5229 7.57272 21.5876 13.3735 21.155 14.0749C21.0396 14.2816 51.9318 14.4499 89.8142 14.4499H158.705V12.0212C158.705 5.46526 163.073 0.34075 168.685 0.312234ZM170.764 9.53196C169.933 8.34487 168.642 8.22213 167.631 9.23411C166.984 9.88125 166.914 18.1477 166.914 93.4109V176.87L167.928 177.58C169.233 178.494 169.464 178.477 170.562 177.378C171.467 176.472 171.474 175.855 171.474 93.5056C171.474 19.1595 171.401 10.4406 170.764 9.53196ZM11.9909 9.08762C11.1631 8.4709 11.0588 8.45881 10.031 8.85032C9.65486 8.99371 9.19663 9.33703 9.01242 9.61302C8.82819 9.89127 8.67376 47.6062 8.66965 93.4265C8.66463 157.612 8.78901 176.858 9.21067 177.287C9.8689 177.945 12.1465 178.015 12.5339 177.388C12.6853 177.132 12.7975 139.296 12.7829 93.3005C12.7588 15.5308 12.7033 9.61794 11.9909 9.08762ZM78.2116 100.478L102.61 100.738V76.0613H77.9685L78.2116 100.478ZM21.4323 100.66L50.6198 100.727V76.0613H21.4323V100.66ZM131.114 100.448L133.166 100.413C134.294 100.393 140.4 100.348 146.734 100.313L158.249 100.25V76.0613H130.871L131.114 100.448ZM51.7019 53.8132C51.8264 56.6373 51.9418 62.1819 51.9587 66.1355L51.988 73.323H76.1589V48.6784H51.4753L51.7019 53.8132ZM129.02 48.5613C128.908 48.5007 123.338 48.5054 116.634 48.572L104.434 48.6941V73.323H129.624L129.415 60.9978C129.3 54.2227 129.122 48.6282 129.02 48.5613ZM21.4323 46.8659L50.3923 46.6247L50.6355 23.1218H21.4323V46.8659ZM78.4392 46.8532H102.61V23.1218H78.4392V46.8532ZM130.885 46.8532H158.143L158.418 45.8269C158.569 45.2613 158.696 39.9216 158.699 33.9607L158.705 23.1218H130.885V46.8532Z" fill="#040404"/>
</svg>
