<svg width="159" height="164" viewBox="0 0 159 164" fill="none" xmlns="http://www.w3.org/2000/svg">
<path fill-rule="evenodd" clip-rule="evenodd" d="M125.575 23.5329C128.735 22.1434 131.946 23.1335 134.21 26.195C135.712 28.2241 135.491 31.661 133.67 34.6228C132.207 37.0027 120.773 52.3599 104.209 74.1941C99.258 80.7198 93.7367 88.0101 91.94 90.3952C90.1432 92.7797 87.3202 96.4765 85.6665 98.6101C84.0128 100.744 79.5079 106.571 75.6548 111.559C71.8019 116.547 68.0181 121.012 67.2466 121.483C66.3231 122.047 64.9829 122.34 63.3189 122.341C59.5613 122.343 59.8303 122.633 48.5142 106.357C46.7584 103.832 44.2276 100.205 42.8892 98.2986C34.4514 86.2742 28.2499 76.6391 27.9614 75.1052C26.889 69.3827 31.5415 63.5094 37.1704 63.4792C41.4795 63.4564 42.9999 64.4811 49.6812 71.9118C60.698 84.1645 64.4643 88.113 65.1372 88.114C65.57 88.114 67.5428 86.3171 69.52 84.1208C71.4975 81.9248 75.2899 77.7652 77.9468 74.8786C80.6035 71.9923 83.5852 68.7173 84.5728 67.6003C85.5597 66.4836 87.7183 64.1211 89.3696 62.3513C91.0205 60.5816 93.6666 57.6962 95.2495 55.9392C96.8319 54.1823 99.0777 51.7177 100.24 50.4626C101.402 49.2076 104.195 46.1274 106.446 43.6179C118.103 30.6207 124.331 24.0801 125.575 23.5329ZM121.975 37.9118C121.846 37.9203 118.836 41.3575 115.278 45.5564C105.216 57.4316 103.601 59.25 84.5835 80.1267C81.8395 83.1388 77.5398 87.8627 75.0288 90.6238C72.518 93.3846 69.7324 96.1049 68.8384 96.6687C66.7949 97.9565 63.6602 98.0314 61.7056 96.8386C60.4969 96.1003 49.9704 84.7113 41.2652 74.7234C38.3075 71.3297 36.784 70.8201 36.5161 73.1345C36.3739 74.3698 36.766 74.9809 46.7993 89.155C48.6148 91.7198 51.3352 95.5644 52.8443 97.698C59.7777 107.501 63.1484 112.028 63.6245 112.179C64.0948 112.327 75.5208 97.8835 96.9224 70.0866C104.197 60.6385 107.746 56.112 118.844 42.1335C120.688 39.812 122.097 37.9118 121.975 37.9118Z" fill="#040404"/>
<path fill-rule="evenodd" clip-rule="evenodd" d="M20.7661 0.753637C24.8171 -0.227549 131.87 -0.261855 136.493 0.716527C144.853 2.4891 152.04 8.11728 155.742 15.7907C158.747 22.0201 158.635 19.4765 158.644 81.9939C158.651 136.877 158.624 138.735 157.752 142.145C155.407 151.32 148.568 158.883 139.881 161.906C134.445 163.798 129.696 163.933 74.7378 163.759C17.0362 163.577 21.2087 163.812 14.3892 160.375C10.1234 158.225 4.81329 152.909 2.79055 148.763C-0.188762 142.656 -0.089571 145.128 0.0591009 80.5818L0.193866 22.1667L1.2007 19.1892C4.22435 10.2411 12.052 2.8654 20.7661 0.753637ZM79.7778 8.85422C36.0562 8.79307 23.4408 8.90176 21.8355 9.35129C18.6355 10.2471 16.8288 11.3589 14.0357 14.154C11.1385 17.0533 9.42677 20.0879 8.66652 23.6726C7.94878 27.0647 7.9414 136.793 8.65871 140.233C10.0649 146.968 16.1381 152.672 23.5679 154.236C25.2663 154.594 41.803 154.743 79.2066 154.738C125.155 154.732 132.829 154.637 135.362 154.04C142.013 152.471 147 147.881 149.334 141.179C150.022 139.203 150.107 133.802 150.246 83.0935C150.412 22.5733 150.47 24.2074 147.98 19.2898C146.109 15.5955 143.005 12.56 139.144 10.6501L135.669 8.93137L79.7778 8.85422Z" fill="#040404"/>
</svg>
