<svg width="179" height="179" viewBox="0 0 179 179" fill="none" xmlns="http://www.w3.org/2000/svg">
<path fill-rule="evenodd" clip-rule="evenodd" d="M144.796 0.0205761C147.934 0.117788 148.942 0.371844 152.004 1.83405C155.153 3.33869 156.458 4.4161 163.337 11.1895C172.33 20.045 175.011 23.2475 177.063 27.5831C178.441 30.4938 178.544 31.0424 178.544 35.5118C178.544 44.1579 183.577 38.4411 120.927 100.958C90.9124 130.909 65.6364 156.027 64.7578 156.775C62.4031 158.781 62.2365 158.85 45.6348 164.662C37.2152 167.609 25 171.908 18.4902 174.215C11.9801 176.521 6.13074 178.514 5.49219 178.641C2.74184 179.189 0.00319249 176.54 2.36982e-07 173.329C-0.000644555 172.45 1.31458 167.727 2.92285 162.833C13.5566 130.473 17.0858 119.972 17.8027 118.564C18.2509 117.684 38.5934 97.041 63.0078 72.6895C112.258 23.5672 131.055 5.10715 133.671 3.29304C134.632 2.62626 136.708 1.59206 138.283 0.994209C140.582 0.122193 141.868 -0.0706947 144.796 0.0205761ZM11.7783 162.829C11.6105 162.831 11.1183 163.911 10.6855 165.229C10.2524 166.546 9.81452 167.855 9.71094 168.137C9.60104 168.437 10.6668 168.248 12.2852 167.681C13.8047 167.148 15.0479 166.607 15.0479 166.479C15.0472 166.101 12.1133 162.826 11.7783 162.829ZM24.0879 127.353C23.3938 126.827 22.9538 127.917 19.3857 138.983C17.2205 145.7 15.256 151.666 15.0205 152.243C14.2313 154.175 14.5959 154.826 18.8818 159.137L23.1494 163.429L31.0703 160.648C35.4265 159.12 41.5993 156.986 44.7861 155.905L50.5801 153.94L37.7168 140.937C30.6422 133.784 24.5091 127.672 24.0879 127.353ZM140.416 69.2745C140.121 69.2745 121.712 87.4485 99.5059 109.662C77.3029 131.872 59.2732 150.182 59.4355 150.356C59.6029 150.523 61.2233 149.241 63.0352 147.505C70.8157 140.053 140.101 70.8055 140.51 70.0733C140.819 69.5149 140.79 69.2746 140.416 69.2745ZM125.869 53.3008C125.734 53.3008 110.338 68.613 91.6562 87.3282C72.9745 106.042 54.6161 124.424 50.8584 128.176L44.0264 134.996L54.041 145.079L76.8438 122.105C89.3853 109.468 107.69 90.923 117.521 80.8926L135.396 62.6563L130.755 57.9786C128.203 55.4069 126.005 53.3021 125.869 53.3008ZM110.354 37.3272C110.233 37.3272 91.8175 55.6589 69.4316 78.0635C47.0604 100.453 28.7559 118.978 28.7354 119.251C28.739 119.5 30.865 121.82 33.459 124.405L38.1748 129.107L75.9795 90.9092C96.7715 69.9012 115.067 51.4797 116.635 49.9727C118.202 48.4666 119.483 47.004 119.484 46.7217C119.484 46.2377 110.824 37.3272 110.354 37.3272ZM125.273 22.7325C124.974 22.7375 122.934 24.5449 120.739 26.7501C118.545 28.9546 116.748 30.9443 116.748 31.171C116.753 31.4026 121.74 36.6261 127.833 42.7833C133.93 48.9444 140.897 56.0323 143.314 58.5342L147.711 63.0821L156.636 54.252L141.934 39.4991C133.848 31.3853 126.915 24.2913 126.525 23.7344C126.136 23.1786 125.573 22.728 125.273 22.7325ZM144.574 8.2237C142.566 8.0909 141.6 8.28987 139.779 9.21394C138.525 9.85104 136.065 11.8185 134.312 13.587L131.127 16.8018L162.856 48.5089L165.718 45.5079C169.259 41.7943 170.549 39.2419 170.682 35.6807C170.86 30.8982 169.539 28.883 159.746 18.9962C150.532 9.69345 148.862 8.50804 144.574 8.2237Z" fill="#040404"/>
</svg>
