<svg width="129" height="196" viewBox="0 0 129 196" fill="none" xmlns="http://www.w3.org/2000/svg">
<path fill-rule="evenodd" clip-rule="evenodd" d="M59.4846 0.912213C67.5962 0.278783 76.6748 1.29566 83.8831 3.64268C90.6143 5.83509 99.9505 11.2443 106.045 16.4835C108.894 18.9319 114.392 25.2763 117.115 29.256C124.712 40.3613 128.943 55.5638 128.195 69.0733C127.729 77.4884 127.399 79.3989 125.29 85.9601C122.489 94.6758 118.863 100.769 111.07 109.86C103.404 118.802 101.628 121.465 99.469 127.252C98.5907 129.606 98.5113 131.051 98.2747 149.168L98.0208 168.565L96.8977 170.847C95.193 174.309 92.0412 177.149 88.8362 178.109C87.3669 178.549 85.9364 178.976 85.6585 179.06C85.3803 179.143 85.0195 180.049 84.8557 181.071C83.6239 188.782 77.7518 194.602 70.0696 195.729C68.637 195.939 65.0114 196.022 62.012 195.913C57.189 195.739 56.2336 195.564 53.7473 194.4C52.201 193.675 50.1188 192.346 49.1213 191.443C46.6857 189.241 44.4894 185.007 44.0794 181.724L43.7503 179.087L41.8547 178.763C37.7386 178.059 33.9367 174.996 32.0296 170.847C31.0086 168.625 30.9745 168.092 30.7131 150.537C30.4623 133.678 30.3794 132.289 29.4309 129.088C27.9405 124.058 24.8165 118.865 19.9172 113.275C9.18051 101.024 4.45758 92.3203 1.73951 79.7745C0.557955 74.3205 0.528163 59.2565 1.68971 54.0128C3.06925 47.7826 4.75349 42.7867 7.08522 38.004C17.5207 16.5988 37.2262 2.64966 59.4846 0.912213ZM52.0159 180.088C52.5207 182.189 53.92 184.627 55.2005 185.636C57.2057 187.214 59.3716 187.593 65.4544 187.43C70.8517 187.285 71.2981 187.202 73.1282 185.988C74.9482 184.782 76.0875 182.99 77.0247 179.86L77.3323 178.833H51.7141L52.0159 180.088ZM64.5725 157.84C50.5269 157.84 38.9274 158.011 38.7815 158.22C38.6524 158.429 38.5884 160.365 38.6399 162.523C38.7462 166.964 39.4573 168.426 42.1868 169.818C43.6069 170.543 45.6352 170.617 64.2727 170.617C82.9108 170.617 84.9395 170.543 86.3596 169.818C89.1271 168.406 89.7926 166.992 89.971 162.143L90.1282 157.84H64.5725ZM38.5061 149.625H90.0403V139.128H38.5061V149.625ZM88.7337 14.9835C79.1041 10.2003 66.6231 8.38634 56.0637 10.2374C44.4569 12.2715 35.2985 16.813 26.8762 24.7091C11.9464 38.7062 5.60533 60.4257 10.6331 80.3478C12.9297 89.447 17.1488 97.0229 24.7493 105.694C29.8969 111.568 31.2947 113.338 32.5911 115.624C35.4619 120.689 36.7531 123.847 38.0501 128.974L38.5413 130.913H56.8567L56.5462 126.464C56.3751 124.017 55.9454 118.522 55.5911 114.255C55.2363 109.988 54.7184 103.005 54.4407 98.7384C54.163 94.4715 53.885 90.4709 53.8225 89.8487C53.7217 88.8373 53.3511 88.6353 50.3264 87.9435C43.6112 86.4082 39.6656 83.9457 37.4797 79.9269C34.9197 75.2189 35.4947 69.2788 38.8352 65.9249C41.2353 63.5154 42.811 62.8095 46.3557 62.5558C49.034 62.3641 49.7483 62.494 51.9768 63.5851C56.238 65.6716 58.1634 69.0681 59.7942 77.3722L60.5393 81.1681H68.5403L68.8264 78.5441C69.5246 72.1406 70.6009 69.1767 73.2991 66.2364C75.7425 63.5731 78.1231 62.4787 81.5042 62.4659C84.6172 62.4541 86.5208 63.1658 88.846 65.2081C91.573 67.6044 92.5346 69.867 92.5247 73.8653C92.5169 76.7874 92.318 77.6521 91.1643 79.7677C88.9168 83.8891 84.4841 86.5414 76.8147 88.3546L75.218 88.7316L73.9944 106.514C73.3208 116.293 72.756 125.78 72.7395 127.596L72.7102 130.895L90.0325 130.814L90.509 128.924C91.9023 123.408 93.6361 119.414 96.7659 114.509C98.3524 112.023 99.7763 110.215 105.801 103.032C115.547 91.4144 119.787 80.3749 119.807 66.5636C119.817 59.5448 119.127 54.9339 117.176 48.9689C113.99 39.2267 109.856 32.4345 102.861 25.4483C97.6588 20.2533 94.2319 17.7143 88.7337 14.9835ZM61.0452 89.9532C61.1738 90.7696 61.6079 96.571 62.011 102.846C63.8773 131.899 63.7649 130.665 64.5588 130.817C65.1891 130.937 65.3503 130.25 65.6262 126.258C65.805 123.673 66.0166 120.839 66.096 119.96C66.1749 119.081 66.386 115.384 66.5647 111.745C66.743 108.107 66.9445 104.821 67.0129 104.443C67.0814 104.066 67.2701 101.293 67.4329 98.2823C67.5957 95.2703 67.8431 91.8303 67.9827 90.6378L68.2356 88.4698H60.8108L61.0452 89.9532ZM49.384 71.3692C47.6166 69.881 45.6514 69.8681 44.1858 71.3351C41.1821 74.3408 44.9216 79.5206 50.9016 80.6388L52.9544 81.0226L52.5667 78.9278C51.8589 75.1059 50.7804 72.5448 49.384 71.3692ZM84.3596 71.3351C82.7922 69.7666 80.547 69.8231 78.9934 71.4698C77.6678 72.8751 76.3588 76.8045 76.3587 79.3771C76.3587 81.0693 76.3609 81.0708 77.9124 80.7208C83.7193 79.4101 87.2674 74.2445 84.3596 71.3351Z" fill="#040404"/>
</svg>
